<svg width="86" height="92" viewBox="0 0 86 92" fill="none" xmlns="http://www.w3.org/2000/svg">
<g clip-path="url(#clip0_226_11)">
<path d="M85.6178 27.2345C85.6171 25.7028 85.2726 24.3494 84.5758 23.188C83.8914 22.0455 82.8665 21.0881 81.4917 20.3311C70.1433 14.1094 58.7839 7.90683 47.4393 1.67885C44.3808 -5.40371e-06 41.4154 0.0615167 38.3796 1.76447C33.8626 4.29701 11.2476 16.6163 4.50864 20.3276C1.73333 21.8555 0.382872 24.1933 0.382205 27.2317C0.377869 39.7438 0.382205 52.2559 0.377869 64.768C0.377869 66.2661 0.708397 67.5935 1.37446 68.7374C2.05919 69.9143 3.09847 70.898 4.50497 71.6721C11.2443 75.3834 33.8623 87.7017 38.3783 90.2352C41.4154 91.9391 44.3808 92 47.4403 90.3208C58.7853 84.0925 70.1453 77.8899 81.4953 71.6683C82.9018 70.8945 83.9411 69.9101 84.6258 68.7342C85.2909 67.5901 85.6221 66.2629 85.6221 64.7645C85.6221 64.7645 85.6221 39.747 85.6178 27.2345Z" fill="#A179DC"/>
<path d="M41.2755 45.7711L-0.480469 68.6306C0.204268 69.8075 1.24355 70.7912 2.65004 71.5653C9.38935 75.2766 32.0073 87.5949 36.5233 90.1284C39.5605 91.8323 42.5259 91.8932 45.5853 90.214C56.9304 83.9857 68.2904 77.7831 79.6404 71.5615C81.0469 70.7877 82.0862 69.8034 82.7709 68.6275L41.2755 45.7711Z" fill="#280068"/>
<path d="M85.6178 27.2346C85.6171 25.7029 85.2726 24.3494 84.5758 23.1881L43.1304 45.8783L84.6259 68.7343C85.2909 67.5901 85.6215 66.263 85.6221 64.7646C85.6221 64.7646 85.6221 39.747 85.6178 27.2346Z" fill="#390091"/>
<path d="M67.7149 37.3324V41.6053H72.2089V37.3324H74.4558V41.6053H78.9498V43.7418H74.4558V48.0144H78.9498V50.1508H74.4558V54.4238H72.2089V50.1508H67.7149V54.4238H65.4679V50.1508H60.9742V48.0144H65.4679V43.7418H60.9742V41.6053H65.4679V37.3324H67.7149ZM72.2089 43.7415H67.7149V48.0144H72.2089V43.7415Z" fill="white"/>
<path d="M43.2221 15.8732C54.9437 15.8732 65.1774 21.9259 70.6589 30.9226L70.6056 30.8361L56.8141 38.3861C54.0972 34.0121 49.1162 31.06 43.4019 30.9991L43.2218 30.9981C34.5083 30.9981 27.4441 37.7148 27.4441 45.9996C27.4413 48.6109 28.1588 51.1773 29.525 53.4425C32.2446 57.9568 37.3573 61.0015 43.2221 61.0015C49.1233 61.0015 54.2649 57.9181 56.9705 53.3556L56.9048 53.465L70.6753 61.05C65.2538 69.9707 55.1601 76.0046 43.575 76.1248L43.2221 76.1267C31.4635 76.1267 21.2008 70.0366 15.7329 60.9923C13.0637 56.577 11.5364 51.4583 11.5364 45.9996C11.5364 29.3614 25.7221 15.8729 43.2218 15.8729L43.2221 15.8732Z" fill="white"/>
</g>
<defs>
<clipPath id="clip0_226_11">
<rect width="86" height="92" fill="white"/>
</clipPath>
</defs>
</svg>
