<svg width="79" height="92" viewBox="0 0 79 92" fill="none" xmlns="http://www.w3.org/2000/svg">
<path d="M0 0L7.20052 82.8041L39.4527 92L71.7995 82.7897L79 0H0ZM59.8014 68.7741L39.5144 74.5446L19.2583 68.7454L17.8696 52.7768H27.7981L28.5038 60.9007L39.5288 64.0139L39.5555 64.0714L50.5559 61.0219L51.7162 47.8482H28.5964L27.7734 37.5804H52.5947L53.4896 27.1071H15.6354L14.8125 17.0446H64.3068L59.8014 68.7741Z" fill="#0041E9"/>
<path d="M59.8014 68.7741L39.5144 74.5446L19.2583 68.7454L17.8696 52.7768H27.7981L28.5038 60.9007L39.5288 64.0139L39.5555 64.0714L50.5559 61.0219L51.7162 47.8482H28.5964L27.7734 37.5804H52.5947L53.4896 27.1071H15.6354L14.8125 17.0446H64.3068L59.8014 68.7741Z" fill="white"/>
</svg>
