<svg width="92" height="92" viewBox="0 0 92 92" fill="none" xmlns="http://www.w3.org/2000/svg">
<path d="M90.0632 41.4L50.6 1.93684C49.3895 0.726316 47.6947 0 46 0C44.3053 0 42.6105 0.726316 41.4 1.93684L32.9263 10.4105L42.8526 20.3368C43.8211 19.8526 44.7895 19.6105 46 19.6105C50.1158 19.6105 53.2632 22.7579 53.2632 26.8737C53.2632 28.0842 53.0211 29.0526 52.5368 30.0211L62.2211 39.7053C63.1895 39.2211 64.1579 38.979 65.3684 38.979C69.4842 38.979 72.6316 42.1263 72.6316 46.2421C72.6316 50.3579 69.4842 53.5053 65.3684 53.5053C61.2526 53.5053 58.1053 50.3579 58.1053 46.2421C58.1053 45.0316 58.3474 44.0632 58.8316 43.0947L49.1474 33.4105C48.9053 33.4105 48.6632 33.6526 48.4211 33.6526V58.8316C51.3263 59.8 53.2632 62.4632 53.2632 65.6105C53.2632 69.7263 50.1158 72.8737 46 72.8737C41.8842 72.8737 38.7368 69.7263 38.7368 65.6105C38.7368 62.4632 40.6737 59.8 43.5789 58.8316V33.4105C40.6737 32.4421 38.7368 29.7789 38.7368 26.6316C38.7368 25.4211 38.9789 24.4526 39.4632 23.4842L29.5368 13.5579L1.93684 41.4C0.726316 42.6105 0 44.3053 0 46C0 47.6947 0.726316 49.3895 1.93684 50.6L41.4 90.0632C42.6105 91.2737 44.3053 92 46 92C47.6947 92 49.3895 91.2737 50.6 90.0632L90.0632 50.6C91.2737 49.3895 92 47.6947 92 46C92 44.3053 91.2737 42.6105 90.0632 41.4Z" fill="#F4511E"/>
<path d="M42.8526 20.3368L32.9263 10.4105L29.5368 13.5579L39.4632 23.4842C38.9789 24.4526 38.7368 25.4211 38.7368 26.6316C38.7368 29.7789 40.6737 32.4421 43.5789 33.4105V58.8316C40.6737 59.8 38.7368 62.4632 38.7368 65.6105C38.7368 69.7263 41.8842 72.8737 46 72.8737C50.1158 72.8737 53.2632 69.7263 53.2632 65.6105C53.2632 62.4632 51.3263 59.8 48.4211 58.8316V33.6526C48.6632 33.6526 48.9053 33.4105 49.1474 33.4105L58.8316 43.0947C58.3474 44.0632 58.1053 45.0316 58.1053 46.2421C58.1053 50.3579 61.2526 53.5053 65.3684 53.5053C69.4842 53.5053 72.6316 50.3579 72.6316 46.2421C72.6316 42.1263 69.4842 38.979 65.3684 38.979C64.1579 38.979 63.1895 39.2211 62.2211 39.7053L52.5368 30.0211C53.0211 29.0526 53.2632 28.0842 53.2632 26.8737C53.2632 22.7579 50.1158 19.6105 46 19.6105C44.7895 19.6105 43.8211 19.8526 42.8526 20.3368Z" fill="white"/>
</svg>
