<svg width="79" height="92" viewBox="0 0 79 92" fill="none" xmlns="http://www.w3.org/2000/svg">
<path d="M0 0L7.18818 82.8021L39.4527 92L71.7995 82.7897L79 0H0ZM63.3646 27.1071H25.5104L26.3333 37.5804H62.5417L59.7623 68.6694L39.5 74.4379L19.1986 68.6879L17.8038 52.7768H27.7323L28.4359 60.8453L39.5 63.8805L50.4901 60.8165L51.638 47.6429H17.2812L14.6911 16.9235H64.2287L63.3646 27.1071Z" fill="#F25C08"/>
<path d="M63.3646 27.1071H25.5104L26.3333 37.5804H62.5417L59.7623 68.6694L39.5 74.4379L19.1986 68.6879L17.8038 52.7768H27.7323L28.4359 60.8453L39.5 63.8805L50.4901 60.8165L51.638 47.6429H17.2812L14.6911 16.9235H64.2287L63.3646 27.1071Z" fill="white"/>
</svg>
