<svg width="96" height="92" viewBox="0 0 96 92" fill="none" xmlns="http://www.w3.org/2000/svg">
<path d="M0 0V92H95.2857V0H0ZM41.7441 54.4034C41.7441 64.6327 35.7017 69.6195 26.9549 69.6195C19.0548 69.6195 14.4691 65.5287 12.1422 60.5912L20.183 55.724C21.7335 58.4754 22.911 60.8023 26.2958 60.8023C29.1105 60.8023 31.4233 59.5333 31.4233 54.5957V21.5646H41.7441V54.4034ZM65.0479 69.3849C55.8788 69.3849 49.9538 65.2472 47.0616 59.5333L55.1141 54.8725C57.2252 58.33 59.9813 60.6334 64.8485 60.6334C68.9393 60.6334 71.3154 58.8225 71.3154 56.0008C71.3154 52.616 68.8689 51.4174 64.3536 49.433L61.886 48.3728C54.7599 45.3422 50.0359 41.5329 50.0359 33.4898C50.0359 26.0846 55.6771 20.6756 64.4943 20.6756C70.7736 20.6756 75.2842 22.6272 78.5329 28.3411L70.8299 33.2927C69.1363 30.2598 67.3114 29.0706 64.4826 29.0706C61.5904 29.0706 59.7561 30.9049 59.7561 33.2927C59.7561 36.2553 61.5904 37.4539 65.8219 39.2881L68.2895 40.346C76.6845 43.9442 81.411 47.6175 81.411 55.8647C81.4133 64.7546 74.4304 69.3849 65.0479 69.3849Z" fill="#FFF500"/>
<path d="M65.0479 69.3849C55.8788 69.3849 49.9538 65.2472 47.0616 59.5333L55.1141 54.8725C57.2252 58.33 59.9813 60.6334 64.8485 60.6334C68.9393 60.6334 71.3154 58.8225 71.3154 56.0008C71.3154 52.616 68.8689 51.4174 64.3536 49.433L61.886 48.3728C54.7599 45.3422 50.0359 41.5329 50.0359 33.4898C50.0359 26.0846 55.6771 20.6756 64.4943 20.6756C70.7736 20.6756 75.2842 22.6272 78.5329 28.3411L70.8299 33.2927C69.1363 30.2598 67.3114 29.0706 64.4826 29.0706C61.5904 29.0706 59.7561 30.9049 59.7561 33.2927C59.7561 36.2553 61.5904 37.4539 65.8219 39.2881L68.2895 40.346C76.6845 43.9442 81.411 47.6175 81.411 55.8647C81.4133 64.7546 74.4304 69.3849 65.0479 69.3849Z" fill="white"/>
</svg>
