<svg width="92" height="92" viewBox="0 0 92 92" fill="none" xmlns="http://www.w3.org/2000/svg">
<path d="M84.4924 57.0975C84.1417 55.5086 82.7004 53.6552 79.7928 53.6552C79.1986 53.6552 78.5489 53.7299 77.809 53.8833C76.452 54.1631 75.2963 54.2992 74.2785 54.3452C82.2001 40.8519 87.3425 22.1088 82.2499 15.6017C75.5397 7.02844 66.5064 5.74811 61.7205 5.74811L61.2701 5.75003C59.4895 5.77878 57.6419 5.99728 55.7827 6.39978L48.9153 7.88328C47.9799 7.76636 47.0274 7.68394 46.0345 7.66669H45.977H45.9464L45.655 7.66478C42.6018 7.66478 39.8169 8.31261 37.3348 9.52969L34.937 8.58478C31.6404 7.28528 26.68 5.73853 21.7733 5.73853C21.4973 5.73853 21.2233 5.74428 20.9473 5.75386C16.1134 5.92828 11.9619 7.76253 8.93935 11.0573C5.16735 15.1704 3.45002 21.1869 3.8391 28.9417C3.85827 29.3423 8.55026 69 21.85 69H21.8979L22.0206 68.9981C23.7475 68.9559 25.3939 68.2621 26.933 66.9339C28.1079 67.8155 29.6279 68.3369 31.0443 68.5439C31.9796 68.7643 33.6624 69.0767 35.6788 69.0767C38.1398 69.0767 40.3593 68.5726 42.2721 67.6622C42.2702 69.3489 42.2606 71.484 42.2414 74.2134L42.2395 74.3571L42.2491 74.5009C42.435 77.2206 42.9046 79.672 43.6119 81.5944C45.6263 87.0742 49.105 90.0929 53.4079 90.0929C53.5862 90.0929 53.7683 90.0872 53.9523 90.0757C57.4904 89.8572 61.0765 87.8696 63.5433 84.7627C66.2132 81.3989 66.8304 77.8493 67.068 75.1295L67.0833 74.9628V74.7941V66.976L67.2808 66.9952L68.1164 67.068L68.1969 67.0757L68.2774 67.0795C68.5151 67.091 68.7604 67.0949 69.0077 67.0949C71.8961 67.0949 75.4515 66.3454 77.855 65.228C80.1531 64.1624 85.4048 61.2337 84.4924 57.0975Z" fill="white"/>
<path d="M63.25 65.1667C63.25 64.7738 63.273 64.446 63.2845 64.0838C63.2653 63.6027 63.25 63.25 63.25 63.25C63.25 63.25 63.273 63.2328 63.3113 63.2079C63.5969 58.0846 65.0095 56.1105 66.5217 54.9854C66.3109 54.6921 66.0675 54.3759 65.8394 54.075C65.2011 53.2374 64.4057 52.1985 63.5547 50.8665L63.3975 50.5636C63.2691 50.2493 62.9586 49.7069 62.5638 48.9939C60.2964 44.8922 55.5775 36.3592 58.8071 30.9695C60.2216 28.6082 62.8743 27.2474 66.7057 26.912C65.1398 22.4595 59.2729 11.7205 45.9712 11.5C45.9674 11.5 45.9635 11.5 45.9597 11.5C34.3811 11.3122 30.5765 21.8347 29.3384 28.1214C31.0442 27.3988 32.9915 26.9599 34.774 26.9599C34.8009 26.9599 34.8296 26.9599 34.8565 26.9599C39.2456 26.9925 42.2644 29.3346 43.1422 33.3884C43.7843 36.363 44.0929 38.9659 44.0852 41.3483C44.066 46.5597 43.0157 49.3005 42.088 51.7194L41.7929 52.5014C41.5552 53.1415 41.3041 53.7376 41.0665 54.2973C40.825 54.8685 40.6122 55.3764 40.457 55.8345C41.3846 56.0453 42.113 56.3424 42.6132 56.5628L42.9026 56.6893C42.9927 56.7276 43.0828 56.7717 43.1652 56.8215C44.7905 57.8105 45.8025 59.3305 46.0191 61.1015C46.136 62.056 46.1169 68.563 46.0766 74.2402C46.2434 76.7031 46.6612 78.7712 47.2132 80.27C47.9971 82.4052 49.956 86.482 53.7184 86.2481C56.3442 86.0852 58.8685 84.4867 60.5436 82.3784C62.3415 80.1148 63.0046 77.6116 63.2538 74.7922V65.1667H63.25Z" fill="#0277BD"/>
<path d="M28.9685 55.4243C25.8769 52.1986 24.3704 47.8592 24.9358 43.817C25.4821 39.9166 25.1735 36.0986 25.0068 34.0458C24.9512 33.3616 24.9148 32.8517 24.9167 32.57C24.9167 32.5547 24.9205 32.5412 24.9224 32.5259C24.9224 32.5182 24.9186 32.5125 24.9186 32.5048C25.1505 26.7146 27.3834 17.5797 33.5302 12.1498C30.5363 10.9711 25.6603 9.41666 21.0833 9.58341C13.9112 9.84408 6.96901 14.8044 7.66668 28.7501C7.92926 33.9826 13.8422 65.3642 21.9267 65.1667C23.0824 65.138 24.2823 64.3962 25.5147 62.9127C27.4639 60.5687 29.3576 58.4431 30.705 56.9634C30.1013 56.5053 29.5186 55.9993 28.9685 55.4243ZM70.9608 28.2345C70.9895 28.5297 70.9646 28.7827 70.9186 29.0165C70.978 30.7798 70.7883 32.4914 70.5947 34.1474C70.4528 35.3664 70.3072 36.6257 70.2669 37.8887C70.2267 39.125 70.4011 40.3459 70.5851 41.6377C71.0163 44.6622 71.4648 48.0758 69.1188 52.0587C69.5501 52.626 69.9296 53.1531 70.2324 53.6629C79.0683 39.3358 82.6294 22.3043 79.2312 17.9631C74.0888 11.3927 66.9703 9.49141 61.3314 9.58341C59.5662 9.61216 57.9619 9.84983 56.5915 10.1469C66.3205 14.8619 70.6541 24.9666 70.9608 28.2345ZM78.5833 57.6362C73.4754 58.6903 71.0183 58.1287 69.8261 57.3947C69.6344 57.5327 69.4428 57.6496 69.2645 57.7588C68.5515 58.1901 67.4226 58.8762 67.1466 63.091C67.3057 63.1217 67.4456 63.1389 67.6181 63.1753L68.4518 63.2501C70.9818 63.3651 74.2958 62.6559 76.2393 61.7532C80.4272 59.8097 82.7099 56.7852 78.5833 57.6362ZM42.2108 61.5615C42.1398 60.9903 41.8313 60.5284 41.2678 60.1585L41.0608 60.0684C40.3688 59.7637 39.5849 59.4167 38.3333 59.4167H38.3257C38.0823 59.4359 37.8408 59.4532 37.5973 59.4532C37.4977 59.4532 37.3999 59.4397 37.3003 59.4359C36.3918 60.1355 35.0999 60.676 31.9029 61.3334C26.1913 62.7882 29.5627 64.5055 31.7534 64.7719C33.8733 65.3028 38.9122 65.9487 42.2587 63.2213C42.2491 62.3627 42.2338 61.7723 42.2108 61.5615Z" fill="#0277BD"/>
<path d="M39.6385 35.4601C39.0789 36.039 38.1953 36.545 37.2197 36.3878C35.6327 36.131 34.4156 34.2162 34.5038 33.4975C34.5881 32.7806 35.9432 32.4069 37.5283 32.6637C38.0784 32.7538 38.5786 32.9091 39.0003 33.1007C38.3869 31.7821 37.2772 31.0211 35.5848 30.8352C32.5852 30.5017 29.4016 32.0696 28.7614 32.9378C28.7749 33.1486 28.7998 33.4189 28.8247 33.7371C29.0029 35.9355 29.3326 40.0314 28.7289 44.3496C28.3302 47.1959 29.4821 50.4236 31.7323 52.7734C33.1832 54.2876 34.8775 55.2459 36.5489 55.5296C36.7616 54.6134 37.1411 53.7202 37.5321 52.7983C37.7487 52.2904 37.9787 51.7499 38.1953 51.1653L38.5058 50.3469C39.3549 48.1331 40.2308 45.8427 40.248 41.3328C40.2557 39.5982 40.0429 37.6183 39.6385 35.4601ZM66.79 42.18C66.5907 40.7827 66.3856 39.3356 66.4354 37.7659C66.4795 36.3437 66.6367 35.0021 66.7881 33.7045C66.9069 32.6829 66.9989 31.7016 67.0526 30.7336C64.582 30.9387 62.9414 31.6517 62.1632 32.8573C62.4852 32.7481 62.8494 32.6618 63.2519 32.6101C64.9615 32.3877 66.2093 32.8803 66.353 33.831C66.4584 34.5267 65.8681 35.1822 65.6094 35.4333C65.0784 35.9489 64.4095 36.2805 63.7291 36.3686C63.6064 36.384 63.4819 36.3916 63.3611 36.3916C62.6845 36.3916 62.0386 36.1597 61.5422 35.8166C61.7569 39.5982 64.5456 44.6563 65.9179 47.1384C66.2112 47.6693 66.4374 48.0929 66.6252 48.4571C67.3784 46.3123 67.1005 44.3573 66.79 42.18Z" fill="#0277BD"/>
</svg>
