<svg width="86" height="92" viewBox="0 0 86 92" fill="none" xmlns="http://www.w3.org/2000/svg">
<path d="M54.1337 0.900283C50.5651 0.271899 45.3418 -0.017651 41.7962 0.000830855C38.473 0.00494612 35.1558 0.305808 31.8794 0.900283C23.099 2.54312 21.4999 5.97254 21.4999 12.3057V19.7149H42.9998V23.0005H14.5163C6.5383 23.0005 0.063376 33.2005 2.81173e-05 45.8195V46.0002C-0.00273751 48.2065 0.198524 50.4077 0.600874 52.5716C2.38421 62.0754 7.93963 68.9999 14.5163 68.9999H18.4285V57.9108C18.4285 51.4832 22.429 45.5998 28.9865 44.3368L30.8812 44.0843H54.1337C55.1103 44.0883 56.0829 43.9502 57.0247 43.6736C59.1778 43.0585 61.0795 41.697 62.4322 39.8023C63.7848 37.9076 64.5119 35.5865 64.4997 33.2025V12.3057C64.4997 6.36682 59.7621 1.88804 54.1337 0.900283ZM31.2766 15.0944C30.5021 15.0972 29.7442 14.8539 29.0991 14.3954C28.454 13.9369 27.9508 13.2837 27.6531 12.5188C27.3555 11.7538 27.2769 10.9116 27.4274 10.0988C27.5778 9.286 27.9505 8.53934 28.4982 7.95346C29.0459 7.36758 29.7439 6.96889 30.5036 6.80794C31.2634 6.647 32.0507 6.73105 32.7658 7.04943C33.4809 7.36782 34.0914 7.9062 34.5201 8.5963C34.9487 9.2864 35.1761 10.0971 35.1735 10.9257C35.1737 11.4732 35.0731 12.0154 34.8774 12.5213C34.6816 13.0272 34.3946 13.4868 34.0327 13.874C33.6708 14.2612 33.2411 14.5682 32.7682 14.7776C32.2953 14.987 31.7884 15.0946 31.2766 15.0944Z" fill="#058E23"/>
<path d="M31.2766 15.0944C30.5021 15.0972 29.7442 14.8539 29.0991 14.3954C28.454 13.9369 27.9508 13.2837 27.6531 12.5188C27.3555 11.7538 27.2769 10.9116 27.4274 10.0988C27.5778 9.286 27.9505 8.53934 28.4982 7.95346C29.0459 7.36758 29.7439 6.96889 30.5036 6.80794C31.2634 6.647 32.0507 6.73105 32.7658 7.04943C33.4809 7.36782 34.0914 7.9062 34.5201 8.5963C34.9487 9.2864 35.1761 10.0971 35.1735 10.9257C35.1737 11.4732 35.0731 12.0154 34.8774 12.5213C34.6816 13.0272 34.3946 13.4868 34.0327 13.874C33.6708 14.2612 33.2411 14.5682 32.7682 14.7776C32.2953 14.987 31.7884 15.0946 31.2766 15.0944Z" fill="white"/>
<path d="M85.0936 37.9914C83.0395 29.2412 77.7202 23.0005 71.4834 23.0005H68.0837V32.7446C68.0837 40.8704 63.0926 46.7538 56.9997 47.7621C56.3843 47.8642 55.7624 47.9157 55.1396 47.9161H31.8813C30.8948 47.9151 29.9122 48.0497 28.9577 48.3166C24.675 49.52 21.4999 53.3313 21.4999 58.2742V79.1731C21.4999 85.1284 27.0937 88.6194 32.582 90.3259C39.149 92.3692 46.3035 92.7389 54.1625 90.3259C59.382 88.7303 64.4997 85.5042 64.4997 79.1731V72.2856H42.9998V68.9999H71.4834C77.1348 68.9999 82.0317 63.8804 84.4313 56.4096C85.4851 53.0555 86.0149 49.5386 85.9996 46.0002C86.005 43.301 85.7007 40.6113 85.0936 37.9914ZM54.6155 76.3926C55.3901 76.3898 56.1479 76.6331 56.793 77.0916C57.4381 77.5502 57.9414 78.2033 58.239 78.9683C58.5366 79.7332 58.6152 80.5755 58.4648 81.3882C58.3143 82.201 57.9416 82.9477 57.3939 83.5336C56.8463 84.1194 56.1483 84.5181 55.3885 84.6791C54.6288 84.84 53.8414 84.756 53.1264 84.4376C52.4113 84.1192 51.8007 83.5808 51.3721 82.8907C50.9434 82.2006 50.716 81.3899 50.7187 80.5613C50.7184 80.0138 50.819 79.4716 51.0148 78.9657C51.2105 78.4598 51.4976 78.0002 51.8595 77.613C52.2214 77.2259 52.6511 76.9188 53.124 76.7094C53.5969 76.5 54.1037 76.3924 54.6155 76.3926Z" fill="#058E23"/>
<path d="M54.6155 76.3926C55.3901 76.3898 56.1479 76.6331 56.793 77.0916C57.4381 77.5502 57.9414 78.2033 58.239 78.9683C58.5366 79.7332 58.6152 80.5755 58.4648 81.3882C58.3143 82.201 57.9416 82.9477 57.3939 83.5336C56.8463 84.1194 56.1483 84.5181 55.3885 84.6791C54.6288 84.84 53.8414 84.756 53.1264 84.4376C52.4113 84.1192 51.8007 83.5808 51.3721 82.8907C50.9434 82.2006 50.716 81.3899 50.7187 80.5613C50.7184 80.0138 50.819 79.4716 51.0148 78.9657C51.2105 78.4598 51.4976 78.0002 51.8595 77.613C52.2214 77.2259 52.6511 76.9188 53.124 76.7094C53.5969 76.5 54.1037 76.3924 54.6155 76.3926Z" fill="white"/>
</svg>
