<svg width="92" height="92" viewBox="0 0 92 92" fill="none" xmlns="http://www.w3.org/2000/svg">
<path d="M46.0001 0C20.5886 0 0 20.5887 0 46C0 71.4115 20.5886 92 46.0001 92C71.4114 92 92 71.4115 92 46C92 20.5887 71.4116 0 46.0001 0Z" fill="#E14715"/>
<path d="M55.7747 17.2501C57.4075 14.4307 61.0243 13.4477 63.8435 15.0799C66.6813 16.7123 67.6461 20.3289 66.0139 23.1671C64.3817 25.9866 60.7645 26.9694 57.9453 25.3374C55.1073 23.6866 54.1429 20.0695 55.7747 17.2501Z" fill="white"/>
<path d="M16.2114 51.9169C12.9468 51.9169 10.2946 49.2641 10.2946 45.9999C10.2946 42.7355 12.9468 40.0829 16.2114 40.0829C19.476 40.0829 22.1282 42.7355 22.1282 45.9999C22.1282 49.2641 19.476 51.9169 16.2114 51.9169Z" fill="white"/>
<path d="M21.4237 52.4924C25.5599 49.1716 25.5785 42.8655 21.4237 39.5267C23.0187 33.4427 26.8213 28.2677 31.9035 24.8549L36.2995 32.1999C26.7471 38.9329 26.7471 53.067 36.2995 59.8002L31.9035 67.1453C26.8211 63.7508 23.0373 58.5574 21.4237 52.4924Z" fill="white"/>
<path d="M63.8435 76.9205C61.0059 78.5525 57.4075 77.5879 55.7747 74.7498C54.1429 71.9122 55.1073 68.2954 57.9453 66.6628C60.7645 65.0306 64.3817 65.995 66.0139 68.8332C67.6459 71.671 66.6813 75.2881 63.8435 76.9205Z" fill="white"/>
<path d="M63.8991 64.0293C58.9469 62.1189 53.4937 65.2533 52.6774 70.5209C51.7128 70.7809 43.6072 73.1738 34.7412 68.7775L38.9146 61.3025C49.4872 66.2179 61.8031 59.1323 62.8235 47.5024L71.3741 47.6322C70.9475 54.0311 68.1655 59.7815 63.8991 64.0293Z" fill="white"/>
<path d="M62.8048 44.4975C61.803 32.9975 49.5798 25.7266 38.8961 30.6976L34.7225 23.2226C43.6072 18.8268 51.6942 21.2192 52.659 21.4788C53.475 26.728 58.9282 29.8814 63.8806 27.9708C68.1654 32.2183 70.9288 37.9683 71.3368 44.3861L62.8048 44.4975Z" fill="white"/>
</svg>
